<svg width="509" height="509" viewBox="0 0 509 509" fill="none" xmlns="http://www.w3.org/2000/svg">
<path d="M450.201 3.99854H58.7882C49.9516 3.99854 42.7882 11.162 42.7882 19.9985V489.001C42.7882 497.838 49.9516 505.001 58.7882 505.001H450.201C459.038 505.001 466.201 497.838 466.201 489.001V19.9985C466.201 11.162 459.038 3.99854 450.201 3.99854Z" fill="#251F73"/>
<path d="M335.467 64.4554C335.466 64.4563 335.466 64.4573 335.466 64.4582V210.472C335.466 219.309 328.303 226.472 319.466 226.472H189.493C180.64 226.472 173.469 219.332 173.488 210.479C173.555 178.455 173.673 107.128 173.451 79.0611C173.099 35.3826 158.629 19.9289 137.064 10.1616C128.343 6.19458 118.513 3.97803 108.125 3.97803H181.364C243.686 3.97803 262.941 48.1942 268.852 77.7144C271.047 88.6787 284.144 95.8297 293.684 89.9957L335.458 64.4474C335.463 64.4441 335.47 64.4499 335.467 64.4554Z" fill="ghostwhite"/>
<path d="M137.044 10.1723C137.046 10.1723 137.047 10.1754 137.045 10.1763C101.036 25.7469 78.7594 66.7395 64.9951 110.476C44.1036 176.828 42.7882 249.539 42.7882 249.539V64.4571C42.7882 30.6288 72.0384 3.98877 108.104 3.98877C118.503 3.98877 128.322 6.20525 137.043 10.1721C137.043 10.1723 137.044 10.1723 137.044 10.1723Z" fill="ghostwhite"/>
<path d="M400.878 505.017C400.882 505.01 400.877 505.002 400.869 505.002H327.646C267.794 505.002 247.663 464.221 240.926 434.841C238.077 422.414 223.083 414.241 212.206 420.893L197.882 429.653C187.22 436.174 173.534 428.501 173.534 416.003V298.528C173.534 289.692 180.697 282.528 189.534 282.528H319.507C328.36 282.528 335.531 289.668 335.512 298.521C335.445 330.545 335.327 401.872 335.549 429.939C335.901 473.618 350.371 489.072 371.936 498.839C380.655 502.805 390.482 505.022 400.869 505.023C400.873 505.023 400.876 505.02 400.878 505.017Z" fill="ghostwhite"/>
<path d="M466.207 259.461C466.204 259.461 466.202 259.464 466.202 259.467V444.544C466.202 478.372 436.951 505.012 400.886 505.012C389.416 505.012 388.279 490.252 396.728 482.496C418.689 462.341 433.722 431.198 444.005 398.524C464.88 332.224 466.21 259.574 466.212 259.462C466.212 259.459 466.21 259.461 466.207 259.461Z" fill="ghostwhite"/>
</svg>
