<svg width="600" height="54" viewBox="0 0 600 54" fill="none" xmlns="http://www.w3.org/2000/svg">
<path d="M29.8642 12.8156V43H23.553V12.8156H29.8642ZM10.2444 12.8156V43H3.93311V12.8156H10.2444ZM26.8458 25.2095V30.286H7.08875V25.2095H26.8458ZM49.0428 28.4109C49.0428 27.0999 48.6617 26.0785 47.8995 25.3467C47.1677 24.615 46.1921 24.2491 44.9725 24.2491C43.8444 24.2491 42.8535 24.5388 41.9998 25.118C41.1461 25.6973 40.5211 26.6578 40.1247 27.9993L34.7738 26.3529C35.2922 24.3406 36.4203 22.7246 38.1581 21.5051C39.9265 20.2855 42.2894 19.6757 45.2469 19.6757C47.2592 19.6757 49.0123 19.9959 50.5063 20.6361C52.0003 21.2459 53.1589 22.1758 53.9821 23.4259C54.8358 24.676 55.2626 26.2462 55.2626 28.1365V37.4205C55.2626 38.5791 55.8114 39.1584 56.909 39.1584C57.4274 39.1584 57.9152 39.0821 58.3725 38.9297L58.0066 42.8171C57.2139 43.2134 56.223 43.4116 55.0339 43.4116C53.9668 43.4116 53.0064 43.2287 52.1527 42.8628C51.299 42.4969 50.6282 41.9481 50.1404 41.2164C49.6526 40.4541 49.4087 39.509 49.4087 38.3809V38.1979L50.5063 38.015C50.3234 39.1736 49.8203 40.1645 48.9971 40.9877C48.1739 41.7804 47.1677 42.3902 45.9786 42.8171C44.82 43.2439 43.6157 43.4573 42.3657 43.4573C40.8107 43.4573 39.4692 43.2287 38.3411 42.7713C37.213 42.2835 36.344 41.5822 35.7342 40.6676C35.1245 39.7529 34.8196 38.6248 34.8196 37.2833C34.8196 35.5759 35.3684 34.1886 36.466 33.1215C37.5636 32.0239 39.1338 31.2769 41.1766 30.8805L49.7745 29.1426L49.7288 33.03L44.2407 34.1276C43.2041 34.3411 42.4114 34.6307 41.8626 34.9966C41.3443 35.332 41.0851 35.896 41.0851 36.6887C41.0851 37.451 41.3595 38.0303 41.9083 38.4266C42.4876 38.823 43.1736 39.0212 43.9663 39.0212C44.6066 39.0212 45.2316 38.9449 45.8414 38.7925C46.4512 38.64 47 38.3961 47.4879 38.0607C47.9757 37.7254 48.3568 37.268 48.6312 36.6887C48.9056 36.1094 49.0428 35.4082 49.0428 34.585V28.4109ZM68.5569 13.1358V35.5454C68.5569 36.643 68.8313 37.451 69.3801 37.9693C69.9594 38.4571 70.7369 38.701 71.7125 38.701C72.4748 38.701 73.1455 38.5943 73.7248 38.3809C74.3041 38.137 74.8224 37.8168 75.2798 37.4205L76.2859 41.5822C75.5542 42.1615 74.6395 42.6189 73.5419 42.9543C72.4443 43.2896 71.2857 43.4573 70.0661 43.4573C68.5416 43.4573 67.1849 43.2287 65.9958 42.7713C64.8372 42.314 63.9225 41.5822 63.2518 40.5761C62.6115 39.57 62.2913 38.2284 62.2913 36.5515V14.8737L68.5569 13.1358ZM75.8743 20.1331V24.7979H58.0838V20.1331H75.8743ZM71.9412 46.0184L68.7856 53.9304H64.5323L66.2245 46.0184H71.9412ZM89.8088 43.4573C87.4002 43.4573 85.2964 42.9848 83.4976 42.0396C81.7292 41.0944 80.3572 39.7376 79.3815 37.9693C78.4059 36.2009 77.918 34.0666 77.918 31.5665C77.918 29.0664 78.4059 26.9322 79.3815 25.1638C80.3572 23.3954 81.714 22.0386 83.4518 21.0935C85.2202 20.1483 87.2325 19.6757 89.4887 19.6757C91.8059 19.6757 93.7725 20.1483 95.3884 21.0935C97.0043 22.0081 98.2391 23.2734 99.0928 24.8894C99.9465 26.4748 100.373 28.2889 100.373 30.3317C100.373 30.9415 100.358 31.5208 100.328 32.0696C100.297 32.6184 100.251 33.1062 100.19 33.5331H81.9426V29.1884H97.4464L94.428 30.286C94.428 28.3652 93.9859 26.8864 93.1017 25.8498C92.248 24.8132 91.0284 24.2948 89.443 24.2948C88.2844 24.2948 87.2782 24.5692 86.4245 25.118C85.6013 25.6669 84.9763 26.4901 84.5495 27.5877C84.1226 28.6548 83.9092 30.0116 83.9092 31.658C83.9092 33.2739 84.1378 34.6155 84.5952 35.6826C85.083 36.7192 85.7538 37.4967 86.6075 38.015C87.4917 38.5333 88.5435 38.7925 89.7631 38.7925C91.1046 38.7925 92.187 38.5333 93.0102 38.015C93.8334 37.4967 94.4737 36.7802 94.931 35.8655L99.916 37.7863C99.4282 38.9754 98.6812 39.9968 97.6751 40.8505C96.6994 41.7042 95.5256 42.3597 94.1536 42.8171C92.812 43.2439 91.3638 43.4573 89.8088 43.4573ZM125.852 14.6907L126.584 19.1726C126.462 19.1726 126.324 19.1726 126.172 19.1726C126.05 19.1422 125.913 19.1269 125.76 19.1269C124.358 19.1269 123.306 19.447 122.605 20.0873C121.903 20.6971 121.553 21.5508 121.553 22.6484L118.992 21.5965C118.992 20.377 119.236 19.2489 119.723 18.2122C120.211 17.1451 120.928 16.2914 121.873 15.6511C122.849 15.0109 124.007 14.6907 125.349 14.6907C125.41 14.6907 125.486 14.6907 125.577 14.6907C125.669 14.6907 125.76 14.6907 125.852 14.6907ZM118.351 38.701C120.821 38.701 122.727 39.2346 124.068 40.3017C125.41 41.3688 126.08 42.8628 126.08 44.7836C126.08 46.5215 125.577 47.985 124.571 49.1741C123.565 50.3936 122.147 51.3083 120.318 51.9181C118.519 52.5279 116.431 52.8328 114.052 52.8328C110.119 52.8328 107.238 52.284 105.409 51.1864C103.61 50.0888 102.71 48.6558 102.71 46.8874C102.71 45.6373 103.183 44.5854 104.128 43.7317C105.104 42.878 106.705 42.4055 108.93 42.314L108.702 43.0457C107.116 42.7713 105.897 42.253 105.043 41.4908C104.22 40.6981 103.808 39.6157 103.808 38.2437C103.808 36.8412 104.342 35.6978 105.409 34.8136C106.506 33.899 107.985 33.3654 109.845 33.2129L112.589 34.4935H111.949C110.638 34.585 109.708 34.8594 109.159 35.3167C108.641 35.7436 108.381 36.2314 108.381 36.7802C108.381 37.4205 108.625 37.9083 109.113 38.2437C109.632 38.5486 110.363 38.701 111.308 38.701H118.351ZM114.098 48.5338C115.684 48.5338 116.979 48.3966 117.986 48.1222C119.022 47.8478 119.784 47.4972 120.272 47.0703C120.791 46.6435 121.05 46.1709 121.05 45.6526C121.05 45.0733 120.821 44.6007 120.364 44.2348C119.906 43.8994 119.083 43.7317 117.894 43.7317H110.165C109.433 43.7317 108.824 43.9147 108.336 44.2805C107.878 44.6464 107.65 45.1495 107.65 45.7898C107.65 46.6435 108.214 47.3142 109.342 47.8021C110.5 48.2899 112.086 48.5338 114.098 48.5338ZM114.144 19.6757C116.278 19.6757 118.123 19.9959 119.678 20.6361C121.263 21.2459 122.467 22.1301 123.291 23.2887C124.144 24.4473 124.571 25.8345 124.571 27.4505C124.571 29.0359 124.144 30.4079 123.291 31.5665C122.467 32.7251 121.263 33.6246 119.678 34.2648C118.123 34.8746 116.278 35.1795 114.144 35.1795C110.76 35.1795 108.168 34.4935 106.369 33.1215C104.601 31.719 103.717 29.8286 103.717 27.4505C103.717 25.8345 104.128 24.4473 104.951 23.2887C105.805 22.1301 107.009 21.2459 108.564 20.6361C110.119 19.9959 111.979 19.6757 114.144 19.6757ZM114.144 23.6088C112.924 23.6088 111.918 23.9442 111.125 24.615C110.333 25.2857 109.936 26.2157 109.936 27.4047C109.936 28.5938 110.333 29.539 111.125 30.2402C111.918 30.911 112.924 31.2464 114.144 31.2464C115.363 31.2464 116.354 30.911 117.117 30.2402C117.909 29.539 118.306 28.5938 118.306 27.4047C118.306 26.2157 117.909 25.2857 117.117 24.615C116.354 23.9442 115.363 23.6088 114.144 23.6088ZM141.988 28.4109C141.988 27.0999 141.607 26.0785 140.845 25.3467C140.113 24.615 139.137 24.2491 137.918 24.2491C136.79 24.2491 135.799 24.5388 134.945 25.118C134.091 25.6973 133.466 26.6578 133.07 27.9993L127.719 26.3529C128.237 24.3406 129.365 22.7246 131.103 21.5051C132.872 20.2855 135.235 19.6757 138.192 19.6757C140.204 19.6757 141.958 19.9959 143.451 20.6361C144.945 21.2459 146.104 22.1758 146.927 23.4259C147.781 24.676 148.208 26.2462 148.208 28.1365V37.4205C148.208 38.5791 148.757 39.1584 149.854 39.1584C150.373 39.1584 150.86 39.0821 151.318 38.9297L150.952 42.8171C150.159 43.2134 149.168 43.4116 147.979 43.4116C146.912 43.4116 145.952 43.2287 145.098 42.8628C144.244 42.4969 143.573 41.9481 143.086 41.2164C142.598 40.4541 142.354 39.509 142.354 38.3809V38.1979L143.451 38.015C143.269 39.1736 142.765 40.1645 141.942 40.9877C141.119 41.7804 140.113 42.3902 138.924 42.8171C137.765 43.2439 136.561 43.4573 135.311 43.4573C133.756 43.4573 132.414 43.2287 131.286 42.7713C130.158 42.2835 129.289 41.5822 128.679 40.6676C128.07 39.7529 127.765 38.6248 127.765 37.2833C127.765 35.5759 128.314 34.1886 129.411 33.1215C130.509 32.0239 132.079 31.2769 134.122 30.8805L142.72 29.1426L142.674 33.03L137.186 34.1276C136.149 34.3411 135.357 34.6307 134.808 34.9966C134.289 35.332 134.03 35.896 134.03 36.6887C134.03 37.451 134.305 38.0303 134.854 38.4266C135.433 38.823 136.119 39.0212 136.912 39.0212C137.552 39.0212 138.177 38.9449 138.787 38.7925C139.396 38.64 139.945 38.3961 140.433 38.0607C140.921 37.7254 141.302 37.268 141.576 36.6887C141.851 36.1094 141.988 35.4082 141.988 34.585V28.4109ZM154.3 43V20.1331H159.926L160.292 26.9931L159.514 26.2614C159.88 24.7674 160.459 23.5326 161.252 22.557C162.045 21.5813 163.005 20.8648 164.133 20.4075C165.292 19.9196 166.557 19.6757 167.929 19.6757C169.515 19.6757 170.917 19.9806 172.137 20.5904C173.387 21.2002 174.362 22.1301 175.064 23.3802C175.795 24.5997 176.161 26.1394 176.161 27.9993V43H169.896V29.7829C169.896 27.8316 169.515 26.4901 168.752 25.7583C167.99 24.9961 166.999 24.615 165.78 24.615C164.926 24.615 164.087 24.8284 163.264 25.2553C162.472 25.6516 161.816 26.3071 161.298 27.2218C160.81 28.1365 160.566 29.3561 160.566 30.8805V43H154.3Z" fill="currentColor"/>
<path d="M217.629 35.3624C217.05 37.0393 216.181 38.4876 215.023 39.7072C213.894 40.9267 212.522 41.8567 210.907 42.4969C209.321 43.1372 207.537 43.4573 205.556 43.4573C202.812 43.4573 200.403 42.8323 198.33 41.5822C196.287 40.3017 194.686 38.5028 193.528 36.1857C192.4 33.8685 191.836 31.1092 191.836 27.9078C191.836 24.7064 192.4 21.9472 193.528 19.63C194.656 17.3128 196.241 15.5292 198.284 14.2791C200.357 12.9986 202.766 12.3583 205.51 12.3583C207.553 12.3583 209.336 12.6479 210.861 13.2272C212.416 13.776 213.727 14.6145 214.794 15.7426C215.861 16.8402 216.669 18.197 217.218 19.8129L214.977 20.8648C214.276 18.761 213.163 17.1756 211.638 16.1085C210.114 15.0109 208.117 14.4621 205.647 14.4621C203.391 14.4621 201.394 15.0109 199.656 16.1085C197.949 17.1756 196.607 18.7153 195.631 20.7276C194.686 22.7094 194.214 25.1028 194.214 27.9078C194.214 30.6823 194.686 33.0757 195.631 35.088C196.577 37.1003 197.903 38.6553 199.61 39.7529C201.318 40.82 203.299 41.3536 205.556 41.3536C207.995 41.3536 210.068 40.7743 211.775 39.6157C213.483 38.4266 214.672 36.7192 215.343 34.4935L217.629 35.3624ZM231.856 19.6757C233.99 19.6757 235.865 20.1483 237.481 21.0935C239.127 22.0386 240.408 23.4107 241.322 25.2095C242.268 26.9779 242.74 29.0969 242.74 31.5665C242.74 34.0362 242.268 36.1704 241.322 37.9693C240.408 39.7376 239.127 41.0944 237.481 42.0396C235.865 42.9848 233.99 43.4573 231.856 43.4573C229.721 43.4573 227.831 42.9848 226.185 42.0396C224.569 41.0944 223.288 39.7376 222.343 37.9693C221.428 36.1704 220.971 34.0362 220.971 31.5665C220.971 29.0969 221.428 26.9779 222.343 25.2095C223.288 23.4107 224.569 22.0386 226.185 21.0935C227.831 20.1483 229.721 19.6757 231.856 19.6757ZM231.856 21.6423C230.118 21.6423 228.608 22.0386 227.328 22.8314C226.047 23.6241 225.041 24.7674 224.309 26.2614C223.608 27.7249 223.258 29.4933 223.258 31.5665C223.258 33.6093 223.608 35.3777 224.309 36.8717C225.041 38.3656 226.047 39.509 227.328 40.3017C228.608 41.0944 230.118 41.4908 231.856 41.4908C233.593 41.4908 235.103 41.0944 236.383 40.3017C237.664 39.509 238.655 38.3656 239.356 36.8717C240.088 35.3777 240.453 33.6093 240.453 31.5665C240.453 29.4933 240.088 27.7249 239.356 26.2614C238.655 24.7674 237.664 23.6241 236.383 22.8314C235.103 22.0386 233.593 21.6423 231.856 21.6423ZM248.364 43V20.1331H250.422L250.605 25.8498L250.239 25.5297C250.666 24.2796 251.306 23.2277 252.16 22.374C253.013 21.4898 254.035 20.8191 255.224 20.3617C256.413 19.9044 257.693 19.6757 259.065 19.6757C260.773 19.6757 262.282 19.9959 263.593 20.6361C264.904 21.2764 265.925 22.2216 266.657 23.4716C267.419 24.7217 267.801 26.2919 267.801 28.1822V43H265.514V28.914C265.514 26.4138 264.889 24.5845 263.639 23.4259C262.419 22.2673 260.819 21.688 258.837 21.688C257.404 21.688 256.062 22.0234 254.812 22.6942C253.593 23.3344 252.586 24.2796 251.794 25.5297C251.031 26.7797 250.65 28.3042 250.65 30.103V43H248.364ZM282.511 43.4573C280.194 43.4573 278.136 42.9848 276.337 42.0396C274.569 41.0944 273.319 39.7376 272.587 37.9693L274.553 36.643C275.102 38.1675 276.078 39.3565 277.48 40.2102C278.913 41.0334 280.651 41.445 282.694 41.445C284.706 41.445 286.277 41.0487 287.405 40.256C288.563 39.4632 289.143 38.4114 289.143 37.1003C289.143 36.2161 288.853 35.4539 288.274 34.8136C287.725 34.1429 286.673 33.6398 285.118 33.3044L279.767 32.1611C277.572 31.7037 276.002 30.972 275.057 29.9658C274.142 28.9292 273.685 27.6791 273.685 26.2157C273.685 24.9961 274.05 23.8985 274.782 22.9228C275.514 21.9472 276.52 21.1697 277.801 20.5904C279.112 19.9806 280.636 19.6757 282.374 19.6757C284.661 19.6757 286.551 20.1331 288.045 21.0477C289.539 21.9319 290.591 23.2734 291.201 25.0723L289.28 26.3071C288.822 24.6912 287.969 23.5174 286.719 22.7856C285.499 22.0539 284.051 21.688 282.374 21.688C281.093 21.688 279.965 21.8862 278.99 22.2825C278.044 22.6484 277.297 23.1667 276.749 23.8375C276.23 24.4778 275.971 25.2248 275.971 26.0785C275.971 26.9626 276.276 27.7706 276.886 28.5024C277.496 29.2036 278.578 29.7219 280.133 30.0573L285.621 31.2464C287.786 31.7037 289.295 32.405 290.149 33.3501C291.002 34.2648 291.429 35.4082 291.429 36.7802C291.429 38.1522 291.063 39.3413 290.332 40.3474C289.6 41.3536 288.563 42.1311 287.222 42.6799C285.88 43.1982 284.31 43.4573 282.511 43.4573ZM304.962 43.4573C303.377 43.4573 301.959 43.1677 300.709 42.5884C299.459 42.0091 298.468 41.1097 297.736 39.8901C297.035 38.64 296.684 37.0851 296.684 35.2252V20.1331H298.971V34.6764C298.971 37.0546 299.535 38.7772 300.663 39.8444C301.822 40.9115 303.438 41.445 305.511 41.445C306.731 41.445 307.828 41.2316 308.804 40.8048C309.81 40.3779 310.664 39.7834 311.365 39.0212C312.066 38.2589 312.6 37.39 312.966 36.4143C313.362 35.4387 313.56 34.3868 313.56 33.2587V20.1331H315.847V43H313.789L313.697 38.2894C313.027 39.9053 311.929 41.1706 310.405 42.0853C308.88 43 307.066 43.4573 304.962 43.4573ZM325.167 9.61426V37.6034C325.167 39.0059 325.411 39.9968 325.899 40.5761C326.387 41.1554 327.149 41.445 328.186 41.445C328.826 41.445 329.329 41.3993 329.695 41.3078C330.091 41.2164 330.549 41.0639 331.067 40.8505L330.747 42.8628C330.35 43.0457 329.893 43.1829 329.375 43.2744C328.887 43.3964 328.338 43.4573 327.728 43.4573C326.112 43.4573 324.893 43 324.07 42.0853C323.277 41.1402 322.881 39.6767 322.881 37.6949V9.61426H325.167ZM337.87 13.776V36.9631C337.87 38.3961 338.205 39.4937 338.876 40.256C339.577 40.9877 340.583 41.3536 341.894 41.3536C342.748 41.3536 343.495 41.2164 344.135 40.942C344.806 40.6371 345.4 40.2102 345.919 39.6614L346.788 41.5365C346.208 42.1158 345.477 42.5884 344.592 42.9543C343.708 43.2896 342.717 43.4573 341.62 43.4573C340.431 43.4573 339.379 43.2439 338.464 42.8171C337.549 42.3597 336.833 41.6737 336.315 40.759C335.827 39.8444 335.583 38.6858 335.583 37.2833V14.4163L337.87 13.776ZM346.422 20.1331V22.0996H331.009V20.1331H346.422ZM351.542 15.6969C350.963 15.6969 350.49 15.5292 350.124 15.1938C349.789 14.8279 349.621 14.3553 349.621 13.776C349.621 13.1967 349.789 12.7394 350.124 12.404C350.49 12.0382 350.963 11.8552 351.542 11.8552C352.121 11.8552 352.578 12.0382 352.914 12.404C353.28 12.7394 353.463 13.1967 353.463 13.776C353.463 14.3553 353.28 14.8279 352.914 15.1938C352.578 15.5292 352.121 15.6969 351.542 15.6969ZM352.685 20.1331V43H350.398V20.1331H352.685ZM359.89 43V20.1331H361.948L362.131 25.8498L361.765 25.5297C362.192 24.2796 362.832 23.2277 363.686 22.374C364.54 21.4898 365.561 20.8191 366.75 20.3617C367.939 19.9044 369.22 19.6757 370.592 19.6757C372.299 19.6757 373.808 19.9959 375.119 20.6361C376.43 21.2764 377.452 22.2216 378.184 23.4716C378.946 24.7217 379.327 26.2919 379.327 28.1822V43H377.04V28.914C377.04 26.4138 376.415 24.5845 375.165 23.4259C373.946 22.2673 372.345 21.688 370.363 21.688C368.93 21.688 367.589 22.0234 366.339 22.6942C365.119 23.3344 364.113 24.2796 363.32 25.5297C362.558 26.7797 362.177 28.3042 362.177 30.103V43H359.89ZM405.242 15.9255L405.791 17.9378C405.761 17.9378 405.73 17.9378 405.7 17.9378C405.669 17.9378 405.623 17.9378 405.562 17.9378C404.068 17.9378 402.91 18.3342 402.087 19.1269C401.294 19.8891 400.898 20.9715 400.898 22.374L399.434 21.6423C399.434 20.4837 399.678 19.4775 400.166 18.6238C400.654 17.7701 401.324 17.1146 402.178 16.6573C403.032 16.1695 403.992 15.9255 405.059 15.9255C405.12 15.9255 405.151 15.9255 405.151 15.9255C405.181 15.9255 405.212 15.9255 405.242 15.9255ZM398.016 40.6676C400.273 40.6676 402.041 41.1402 403.321 42.0853C404.602 43.0305 405.242 44.2958 405.242 45.8812C405.242 47.2837 404.77 48.5033 403.825 49.5399C402.91 50.5766 401.645 51.3845 400.029 51.9638C398.413 52.5431 396.568 52.8328 394.495 52.8328C391.05 52.8328 388.412 52.2382 386.583 51.0492C384.754 49.8906 383.839 48.4271 383.839 46.6587C383.839 45.3782 384.296 44.2653 385.211 43.3201C386.156 42.375 387.528 41.8109 389.327 41.628L389.144 42.0396C388.168 41.7652 387.299 41.3078 386.537 40.6676C385.805 40.0273 385.44 39.1126 385.44 37.9235C385.44 36.643 385.912 35.6064 386.857 34.8136C387.833 33.9904 389.114 33.5178 390.699 33.3959L393.123 34.2191H392.162C390.76 34.3106 389.632 34.6612 388.778 35.271C387.955 35.8503 387.543 36.6125 387.543 37.5577C387.543 38.5943 387.94 39.3718 388.732 39.8901C389.556 40.4084 390.592 40.6676 391.842 40.6676H398.016ZM394.495 50.912C396.294 50.912 397.833 50.6985 399.114 50.2717C400.395 49.8448 401.37 49.2655 402.041 48.5338C402.742 47.8325 403.093 47.0398 403.093 46.1556C403.093 45.0885 402.62 44.2348 401.675 43.5945C400.76 42.9543 399.358 42.6341 397.468 42.6341H390.973C389.54 42.6341 388.351 42.9695 387.406 43.6403C386.461 44.311 385.988 45.2105 385.988 46.3386C385.988 47.7106 386.735 48.8082 388.229 49.6314C389.754 50.4851 391.842 50.912 394.495 50.912ZM394.175 19.6757C395.974 19.6757 397.559 19.9959 398.931 20.6361C400.334 21.2459 401.416 22.1149 402.178 23.243C402.94 24.3406 403.321 25.6364 403.321 27.1303C403.321 28.5938 402.94 29.9049 402.178 31.0635C401.416 32.1916 400.334 33.0757 398.931 33.716C397.559 34.3258 395.974 34.6307 394.175 34.6307C391.278 34.6307 389.007 33.9447 387.36 32.5727C385.744 31.1702 384.936 29.3561 384.936 27.1303C384.936 25.6364 385.318 24.3406 386.08 23.243C386.873 22.1149 387.955 21.2459 389.327 20.6361C390.729 19.9959 392.345 19.6757 394.175 19.6757ZM394.175 21.5508C392.162 21.5508 390.516 22.0691 389.235 23.1058C387.955 24.1119 387.315 25.4534 387.315 27.1303C387.315 28.8072 387.955 30.164 389.235 31.2007C390.516 32.2373 392.162 32.7556 394.175 32.7556C396.187 32.7556 397.818 32.2373 399.068 31.2007C400.349 30.164 400.989 28.8072 400.989 27.1303C400.989 25.4534 400.349 24.1119 399.068 23.1058C397.818 22.0691 396.187 21.5508 394.175 21.5508Z" fill="currentColor"/>
<path d="M426.296 43.4573C424.467 43.4573 422.866 43.1524 421.494 42.5427C420.122 41.9024 419.055 41.0182 418.293 39.8901C417.531 38.762 417.149 37.451 417.149 35.957C417.149 34.8594 417.302 33.8685 417.607 32.9843C417.942 32.1001 418.43 31.2769 419.07 30.5146C419.741 29.7219 420.564 28.9749 421.54 28.2737C422.546 27.5724 423.72 26.8864 425.061 26.2157L426.205 25.6669C427.485 24.9351 428.583 24.2491 429.498 23.6088C430.412 22.9381 431.129 22.2063 431.647 21.4136C432.165 20.5904 432.425 19.5995 432.425 18.4409C432.425 17.1908 432.013 16.2152 431.19 15.5139C430.397 14.7822 429.315 14.4163 427.943 14.4163C426.449 14.4163 425.29 14.8432 424.467 15.6969C423.644 16.5201 423.232 17.572 423.232 18.8525C423.232 19.4928 423.308 20.1026 423.461 20.6819C423.644 21.2307 423.994 21.9167 424.513 22.7399C425.031 23.5326 425.793 24.5997 426.799 25.9413C427.805 27.2523 429.147 28.9902 430.824 31.1549C432.592 33.3806 434.056 35.1947 435.214 36.5973C436.373 37.9998 437.364 39.0669 438.187 39.7986C439.01 40.5304 439.757 41.0334 440.428 41.3078C441.129 41.5822 441.861 41.7195 442.623 41.7195L442.12 43.4573C441.266 43.4573 440.459 43.3049 439.696 43C438.934 42.7256 438.096 42.2073 437.181 41.445C436.266 40.6523 435.184 39.5242 433.934 38.0607C432.684 36.5973 431.144 34.7222 429.315 32.4355C427.699 30.3927 426.357 28.6853 425.29 27.3133C424.253 25.9413 423.415 24.7827 422.775 23.8375C422.165 22.8923 421.723 22.0386 421.448 21.2764C421.205 20.5142 421.083 19.7062 421.083 18.8525C421.083 17.6939 421.342 16.6268 421.86 15.6511C422.409 14.6755 423.202 13.898 424.238 13.3187C425.275 12.7394 426.555 12.4498 428.08 12.4498C429.36 12.4498 430.473 12.6784 431.418 13.1358C432.364 13.5931 433.095 14.2639 433.614 15.1481C434.162 16.0018 434.437 17.0232 434.437 18.2122C434.437 19.4928 434.178 20.6361 433.659 21.6423C433.172 22.6484 432.409 23.5783 431.373 24.432C430.336 25.2857 428.979 26.1852 427.302 27.1303L426.342 27.4962C424.787 28.3194 423.476 29.1274 422.409 29.9201C421.372 30.6823 420.595 31.5208 420.076 32.4355C419.558 33.3501 419.299 34.463 419.299 35.774C419.299 36.9631 419.619 37.9998 420.259 38.884C420.9 39.7681 421.753 40.4389 422.82 40.8962C423.888 41.3536 425.092 41.5822 426.433 41.5822C428.263 41.5822 429.833 41.2316 431.144 40.5304C432.455 39.8291 433.598 38.8687 434.574 37.6491L434.894 37.2833C435.839 35.9112 436.541 34.3106 436.998 32.4812C437.455 30.6518 437.638 28.6853 437.547 26.5815L439.559 26.7187C439.62 28.7615 439.391 30.8195 438.873 32.8928C438.385 34.9356 437.547 36.7497 436.358 38.3351L435.946 38.9297C434.879 40.3017 433.537 41.3993 431.922 42.2225C430.336 43.0457 428.461 43.4573 426.296 43.4573Z" fill="currentColor"/>
<path d="M477.337 12.8156V14.9194H466.315V43H464.028V14.9194H453.006V12.8156H477.337ZM477.576 43V20.1331H479.497L479.771 24.9351C480.35 23.3192 481.28 22.0386 482.561 21.0935C483.842 20.1483 485.381 19.6757 487.18 19.6757C487.79 19.6757 488.339 19.7367 488.826 19.8587C489.314 19.9806 489.711 20.1788 490.016 20.4532L489.513 22.4655C489.177 22.2521 488.811 22.0844 488.415 21.9624C488.019 21.8405 487.424 21.7795 486.631 21.7795C485.473 21.7795 484.375 22.1453 483.338 22.8771C482.302 23.5783 481.463 24.5692 480.823 25.8498C480.183 27.0999 479.863 28.5481 479.863 30.1945V43H477.576ZM507.359 27.9536C507.359 25.9717 506.826 24.432 505.759 23.3344C504.692 22.2368 503.167 21.688 501.185 21.688C499.447 21.688 497.954 22.0691 496.703 22.8314C495.453 23.5631 494.523 24.7979 493.914 26.5358L492.039 25.3467C492.709 23.5479 493.822 22.1606 495.377 21.1849C496.963 20.1788 498.914 19.6757 501.231 19.6757C502.908 19.6757 504.371 19.9806 505.622 20.5904C506.902 21.1697 507.893 22.0386 508.594 23.1972C509.296 24.3558 509.646 25.8041 509.646 27.5419V38.9754C509.646 40.5913 510.378 41.3993 511.841 41.3993C512.482 41.3993 513.03 41.2926 513.488 41.0792L513.351 42.9085C512.832 43.1829 512.161 43.3201 511.338 43.3201C510.637 43.3201 509.982 43.1829 509.372 42.9085C508.762 42.6341 508.259 42.1768 507.863 41.5365C507.497 40.8962 507.314 40.0273 507.314 38.9297V37.6949L507.954 37.6491C507.68 38.9602 507.07 40.0578 506.125 40.942C505.21 41.7957 504.143 42.4359 502.923 42.8628C501.704 43.2592 500.484 43.4573 499.265 43.4573C497.832 43.4573 496.551 43.2287 495.423 42.7713C494.295 42.314 493.411 41.6585 492.77 40.8048C492.13 39.9206 491.81 38.8382 491.81 37.5577C491.81 35.8503 492.374 34.4783 493.502 33.4416C494.661 32.3745 496.277 31.6428 498.35 31.2464L507.817 29.3713V31.2921L499.493 32.9385C497.694 33.3044 496.353 33.838 495.469 34.5392C494.584 35.2405 494.142 36.2009 494.142 37.4205C494.142 38.6705 494.615 39.6614 495.56 40.3932C496.505 41.0944 497.847 41.445 499.585 41.445C500.469 41.445 501.368 41.3231 502.283 41.0792C503.198 40.8353 504.036 40.4541 504.798 39.9358C505.591 39.387 506.216 38.7163 506.673 37.9235C507.131 37.1003 507.359 36.1094 507.359 34.9508V27.9536ZM526.2 43.4573C524.219 43.4573 522.435 42.9848 520.85 42.0396C519.264 41.0944 518.014 39.7376 517.099 37.9693C516.215 36.1704 515.773 34.0362 515.773 31.5665C515.773 29.0359 516.246 26.8864 517.191 25.118C518.136 23.3497 519.417 22.0081 521.032 21.0935C522.648 20.1483 524.432 19.6757 526.383 19.6757C528.518 19.6757 530.332 20.2398 531.826 21.3679C533.35 22.496 534.371 24.0662 534.89 26.0785L534.615 26.2614V9.61426H536.902V43H534.844L534.707 36.643L534.981 36.5515C534.707 38.015 534.143 39.2651 533.289 40.3017C532.466 41.3383 531.429 42.1311 530.179 42.6799C528.96 43.1982 527.633 43.4573 526.2 43.4573ZM526.475 41.445C528.091 41.445 529.508 41.0487 530.728 40.256C531.948 39.4328 532.893 38.2589 533.564 36.7345C534.265 35.21 534.615 33.4264 534.615 31.3836C534.615 29.3713 534.265 27.6487 533.564 26.2157C532.893 24.7522 531.948 23.6393 530.728 22.8771C529.539 22.0844 528.152 21.688 526.566 21.688C523.944 21.688 521.871 22.5722 520.346 24.3406C518.822 26.109 518.06 28.5176 518.06 31.5665C518.06 34.6155 518.807 37.0241 520.301 38.7925C521.825 40.5609 523.883 41.445 526.475 41.445ZM545.291 15.6969C544.711 15.6969 544.239 15.5292 543.873 15.1938C543.538 14.8279 543.37 14.3553 543.37 13.776C543.37 13.1967 543.538 12.7394 543.873 12.404C544.239 12.0382 544.711 11.8552 545.291 11.8552C545.87 11.8552 546.327 12.0382 546.663 12.404C547.029 12.7394 547.212 13.1967 547.212 13.776C547.212 14.3553 547.029 14.8279 546.663 15.1938C546.327 15.5292 545.87 15.6969 545.291 15.6969ZM546.434 20.1331V43H544.147V20.1331H546.434ZM553.639 43V20.1331H555.697L555.88 25.8498L555.514 25.5297C555.941 24.2796 556.581 23.2277 557.435 22.374C558.289 21.4898 559.31 20.8191 560.499 20.3617C561.688 19.9044 562.969 19.6757 564.341 19.6757C566.048 19.6757 567.557 19.9959 568.868 20.6361C570.179 21.2764 571.201 22.2216 571.932 23.4716C572.695 24.7217 573.076 26.2919 573.076 28.1822V43H570.789V28.914C570.789 26.4138 570.164 24.5845 568.914 23.4259C567.694 22.2673 566.094 21.688 564.112 21.688C562.679 21.688 561.337 22.0234 560.087 22.6942C558.868 23.3344 557.862 24.2796 557.069 25.5297C556.307 26.7797 555.926 28.3042 555.926 30.103V43H553.639ZM598.991 15.9255L599.54 17.9378C599.51 17.9378 599.479 17.9378 599.449 17.9378C599.418 17.9378 599.372 17.9378 599.311 17.9378C597.817 17.9378 596.659 18.3342 595.836 19.1269C595.043 19.8891 594.646 20.9715 594.646 22.374L593.183 21.6423C593.183 20.4837 593.427 19.4775 593.915 18.6238C594.403 17.7701 595.073 17.1146 595.927 16.6573C596.781 16.1695 597.741 15.9255 598.808 15.9255C598.869 15.9255 598.9 15.9255 598.9 15.9255C598.93 15.9255 598.961 15.9255 598.991 15.9255ZM591.765 40.6676C594.021 40.6676 595.79 41.1402 597.07 42.0853C598.351 43.0305 598.991 44.2958 598.991 45.8812C598.991 47.2837 598.519 48.5033 597.573 49.5399C596.659 50.5766 595.393 51.3845 593.778 51.9638C592.162 52.5431 590.317 52.8328 588.244 52.8328C584.798 52.8328 582.161 52.2382 580.332 51.0492C578.502 49.8906 577.588 48.4271 577.588 46.6587C577.588 45.3782 578.045 44.2653 578.96 43.3201C579.905 42.375 581.277 41.8109 583.076 41.628L582.893 42.0396C581.917 41.7652 581.048 41.3078 580.286 40.6676C579.554 40.0273 579.188 39.1126 579.188 37.9235C579.188 36.643 579.661 35.6064 580.606 34.8136C581.582 33.9904 582.862 33.5178 584.448 33.3959L586.872 34.2191H585.911C584.509 34.3106 583.381 34.6612 582.527 35.271C581.704 35.8503 581.292 36.6125 581.292 37.5577C581.292 38.5943 581.689 39.3718 582.481 39.8901C583.304 40.4084 584.341 40.6676 585.591 40.6676H591.765ZM588.244 50.912C590.043 50.912 591.582 50.6985 592.863 50.2717C594.143 49.8448 595.119 49.2655 595.79 48.5338C596.491 47.8325 596.842 47.0398 596.842 46.1556C596.842 45.0885 596.369 44.2348 595.424 43.5945C594.509 42.9543 593.107 42.6341 591.216 42.6341H584.722C583.289 42.6341 582.1 42.9695 581.155 43.6403C580.21 44.311 579.737 45.2105 579.737 46.3386C579.737 47.7106 580.484 48.8082 581.978 49.6314C583.503 50.4851 585.591 50.912 588.244 50.912ZM587.924 19.6757C589.722 19.6757 591.308 19.9959 592.68 20.6361C594.082 21.2459 595.165 22.1149 595.927 23.243C596.689 24.3406 597.07 25.6364 597.07 27.1303C597.07 28.5938 596.689 29.9049 595.927 31.0635C595.165 32.1916 594.082 33.0757 592.68 33.716C591.308 34.3258 589.722 34.6307 587.924 34.6307C585.027 34.6307 582.756 33.9447 581.109 32.5727C579.493 31.1702 578.685 29.3561 578.685 27.1303C578.685 25.6364 579.066 24.3406 579.829 23.243C580.621 22.1149 581.704 21.2459 583.076 20.6361C584.478 19.9959 586.094 19.6757 587.924 19.6757ZM587.924 21.5508C585.911 21.5508 584.265 22.0691 582.984 23.1058C581.704 24.1119 581.064 25.4534 581.064 27.1303C581.064 28.8072 581.704 30.164 582.984 31.2007C584.265 32.2373 585.911 32.7556 587.924 32.7556C589.936 32.7556 591.567 32.2373 592.817 31.2007C594.098 30.164 594.738 28.8072 594.738 27.1303C594.738 25.4534 594.098 24.1119 592.817 23.1058C591.567 22.0691 589.936 21.5508 587.924 21.5508Z" fill="currentColor"/>
</svg>
