<svg width="348" height="200" viewBox="0 0 348 200" fill="none" xmlns="http://www.w3.org/2000/svg">
<g id="logo">
<path id="Vector" d="M185.211 8.07929C189.81 3.26691 196.057 0.563354 202.562 0.563354C231.826 0.563354 259.405 0.563369 286.565 0.563424C341.19 0.563539 368.544 69.6644 329.918 110.078L245.782 198.108C241.919 202.15 235.315 199.287 235.315 193.572V116.038L245.038 105.864C252.763 97.7818 247.292 83.9613 236.367 83.9613H112.686L185.211 8.07929Z" fill="url(#paint0_linear_1_16)"/>
<path id="Vector_2" d="M162.789 191.921C158.19 196.733 151.943 199.437 145.439 199.437C116.174 199.437 88.5948 199.437 61.4354 199.437C6.80999 199.436 -20.5437 130.336 18.0821 89.9218L102.218 1.89184C106.081 -2.14954 112.685 0.712734 112.685 6.42809L112.686 83.9613L102.962 94.1353C95.2371 102.218 100.708 116.038 111.633 116.038L235.315 116.038L162.789 191.921Z" fill="url(#paint1_linear_1_16)"/>
</g>
<defs>
<linearGradient id="paint0_linear_1_16" x1="293.314" y1="9.99999" x2="78.4694" y2="198.778" gradientUnits="userSpaceOnUse">
<stop stop-color="#59FFB1"/>
<stop offset="0.510529" stop-color="#009CCC"/>
<stop offset="1" stop-color="#3A04FF"/>
</linearGradient>
<linearGradient id="paint1_linear_1_16" x1="293.314" y1="9.99999" x2="78.4693" y2="198.778" gradientUnits="userSpaceOnUse">
<stop stop-color="#59FFB1"/>
<stop offset="0.510529" stop-color="#009CCC"/>
<stop offset="1" stop-color="#3A04FF"/>
</linearGradient>
</defs>
</svg>
